<svg xmlns="http://www.w3.org/2000/svg" width="106" height="94.347" viewBox="0 0 106 94.347">
    <path d="m98.511 94.116-16.386-6.844a38.106 38.106 0 0 1-7.458.736c-13.778 0-25.917-7.452-29.931-18.037-.577.019-1.154.029-1.736.029a52.532 52.532 0 0 1-10.681-1.1L7.68 78.735a3 3 0 0 1-3.823-4.071l7.537-15.917C4.027 52.273 0 43.921 0 35 0 15.7 19.29 0 43 0s43 15.7 43 35a28.771 28.771 0 0 1-.194 3.339C97.829 42.075 106 51.629 106 62.341a23.027 23.027 0 0 1-7.969 17.121l4.411 10.746a3 3 0 0 1-3.931 3.908zM83.573 81.374l10.57 4.414-2.492-6.071a3 3 0 0 1 .932-3.506C97.366 72.487 100 67.56 100 62.341c0-7.925-6.251-15.083-15.512-18.126C80.195 57 67.193 66.9 51.015 69.39c3.706 7.477 13.053 12.618 23.651 12.618a32.081 32.081 0 0 0 7.087-.791 3 3 0 0 1 1.82.158zM6 35c0 7.757 3.887 15.059 10.947 20.559a3 3 0 0 1 .868 3.65l-5.269 11.124 18.4-7.341a3 3 0 0 1 1.777-.139A46.445 46.445 0 0 0 43 64c20.4 0 37-13.01 37-29S63.4 6 43 6 6 19.009 6 35zm49.424.3a4 4 0 1 1 4 4 4 4 0 0 1-4-4zM39 35.3a4 4 0 1 1 4 4 4 4 0 0 1-4-4zm-16.4 0a4 4 0 1 1 4 4 4 4 0 0 1-4-4z" style="fill:#666768"/>
</svg>
