<svg xmlns="http://www.w3.org/2000/svg" width="79.333" height="106" viewBox="0 0 79.333 106">
    <path d="M6.333 106A6.341 6.341 0 0 1 0 99.667V6.333A6.341 6.341 0 0 1 6.333 0H73a6.341 6.341 0 0 1 6.333 6.333v93.333A6.341 6.341 0 0 1 73 106zM6 99.667 73 100l.05-14H6zM73.07 80l.216-60.666H6V80zm.238-66.667.025-7-67-.333A.333.333 0 0 0 6 6.333v7zM36.67 93a3 3 0 1 1 3 3 3 3 0 0 1-3-3zm-.337-33.168a3.5 3.5 0 0 1-3.5-3.5v-6.665a3.5 3.5 0 0 1 3.5-3.5H43a3.5 3.5 0 0 1 3.5 3.5v6.667a3.5 3.5 0 0 1-3.5 3.5zm-20 0a3.5 3.5 0 0 1-3.5-3.5v-6.665a3.5 3.5 0 0 1 3.5-3.5H23a3.5 3.5 0 0 1 3.5 3.5v6.667a3.5 3.5 0 0 1-3.5 3.5zm40-20a3.5 3.5 0 0 1-3.5-3.5v-6.665a3.5 3.5 0 0 1 3.5-3.5H63a3.5 3.5 0 0 1 3.5 3.5v6.666a3.5 3.5 0 0 1-3.5 3.5zm-20 0a3.5 3.5 0 0 1-3.5-3.5v-6.665a3.5 3.5 0 0 1 3.5-3.5H43a3.5 3.5 0 0 1 3.5 3.5v6.666a3.5 3.5 0 0 1-3.5 3.5zm-20 0a3.5 3.5 0 0 1-3.5-3.5v-6.665a3.5 3.5 0 0 1 3.5-3.5H23a3.5 3.5 0 0 1 3.5 3.5v6.666a3.5 3.5 0 0 1-3.5 3.5z" style="fill:#666768"/>
</svg>
