<svg xmlns="http://www.w3.org/2000/svg" width="106" height="99.334" viewBox="0 0 106 99.334">
    <path d="M3 99.334a3 3 0 0 1-3-3V29.668a3 3 0 0 1 3-3h10.333V16.334a3 3 0 0 1 3-3h10.334V3a3 3 0 0 1 3-3H103a3 3 0 0 1 3 3v66.667a3 3 0 0 1-3 3H92.667V83a3 3 0 0 1-3 3H79.333v10.334a3 3 0 0 1-3 3zm3-6h67.333V86h-57a3 3 0 0 1-3-3V52.667H6zM86.666 80v-7.333h-57a3 3 0 0 1-3-3V39.334h-7.332V80h57.1zM100 66.667V26H32.667v40.667H100zm-86.666-20v-14H6v14zm13.333-13.333v-14h-7.333v14zM100 20V6H32.667v14zm-43.3-7a3 3 0 1 1 3 3 3 3 0 0 1-3-3zm-10 0a3 3 0 1 1 3 3 3 3 0 0 1-3-3zm-10 0a3 3 0 1 1 3 3 3 3 0 0 1-3-3z" style="fill:#666768"/>
</svg>
