<svg xmlns="http://www.w3.org/2000/svg" width="106" height="86" viewBox="0 0 106 86">
    <path d="M48.556 85.785C31.759 79.069 30.166 65.923 30.015 56H13A13.015 13.015 0 0 1 0 43V29.667a13.015 13.015 0 0 1 13-13h30c5.855 0 26.644-1.164 48.293-16.134A3 3 0 0 1 96 3v20.683a13 13 0 0 1 0 25.3v20.684a3 3 0 0 1-4.918 2.307A81.824 81.824 0 0 0 43 56h-6.986c.131 9.175 1.45 18.889 14.77 24.215a3 3 0 1 1-2.228 5.571zM43 50a88 88 0 0 1 47 13.847V8.531c-21.344 13.06-41.134 14.136-47 14.136h-7V50zM6 29.667V43a7.008 7.008 0 0 0 7 7h17V22.667H13a7.008 7.008 0 0 0-7 7zm90 12.99a7 7 0 0 0 0-12.648z" style="fill:#666768"/>
</svg>
