<svg xmlns="http://www.w3.org/2000/svg" width="106" height="105.999" viewBox="0 0 106 105.999">
    <path d="M66.667 86.332a19.6 19.6 0 0 1 .939-6.009L35.7 64.371a19.667 19.667 0 1 1 0-22.743l31.9-15.952a19.714 19.714 0 1 1 2.7 5.363L38.394 46.99a19.7 19.7 0 0 1 0 12.018L70.3 74.96a19.658 19.658 0 1 1-3.629 11.371zm6 0a13.671 13.671 0 1 0 1.449-6.121l-.005.011-.006.011a13.586 13.586 0 0 0-1.438 6.099zM6 53a13.665 13.665 0 0 0 25.872 6.145l.017-.034.019-.037A13.666 13.666 0 1 0 6 53zm66.667-33.333A13.667 13.667 0 1 0 86.333 6a13.682 13.682 0 0 0-13.666 13.667z" style="fill:#666768"/>
</svg>
