<svg xmlns="http://www.w3.org/2000/svg" width="106" height="99.337" viewBox="0 0 106 99.337">
    <path d="M50 96.337A10.345 10.345 0 0 0 39.667 86H0V6.67h39.667A16.325 16.325 0 0 1 53 13.579 16.324 16.324 0 0 1 66.333 6.67h.331V0h26v6.67H106V86H66.333A10.346 10.346 0 0 0 56 96.337a3 3 0 1 1-6 0zM56 83.7A16.255 16.255 0 0 1 66.333 80H100V12.67h-7.337v32.6l-13-8.662-13 8.662v-32.6h-.331A10.345 10.345 0 0 0 56 23zM6 80h33.667A16.262 16.262 0 0 1 50 83.7V23a10.345 10.345 0 0 0-10.333-10.33H6zm66.663-45.939 7-4.665 7 4.664V6h-14V9.767zm-6.33 35.274a3 3 0 1 1 0-6h23.332a3 3 0 0 1 0 6zm-50 0a3 3 0 0 1 0-6h23.331a3 3 0 0 1 0 6zM66.334 56a3 3 0 1 1 0-6h23.331a3 3 0 0 1 0 6zm-50 0a3 3 0 0 1 0-6h23.33a3 3 0 0 1 0 6zm0-13.333a3 3 0 0 1 0-6h23.33a3 3 0 0 1 0 6zm0-13.334a3 3 0 1 1 0-6h23.33a3 3 0 0 1 0 6z" style="fill:#666768"/>
</svg>
