<svg xmlns="http://www.w3.org/2000/svg" width="106" height="106" viewBox="0 0 106 106">
    <path d="M36.333 106a3 3 0 0 1 0-6H103a3 3 0 0 1 0 6zM43 92.667a3 3 0 0 1-3-3v-7h-7v-6h7V53a3 3 0 0 1 3-3h53.333a3 3 0 0 1 3 3v36.667a3 3 0 0 1-3 3zm3-6h47.333V56H46zm-26.333-4a3 3 0 0 1-3-3V73h6v3.668h3.668v6zm-3-16.333v-6.668h6v6.667zM3 56a3 3 0 0 1 0-6h26.667a3 3 0 1 1 0 6zm80.334-9.667v-6.666h6v6.666zM9.667 42.667a3 3 0 0 1-3-3V3a3 3 0 0 1 3-3H63a3 3 0 0 1 3 3v20.333h7v6h-7v10.334a3 3 0 0 1-3 3zm3-6H60V6H12.667zM83.334 33v-3.667h-3.668v-6h6.667a3 3 0 0 1 3 3V33z" style="fill:#666768"/>
</svg>
