<svg xmlns="http://www.w3.org/2000/svg" width="106" height="99.34" viewBox="0 0 106 99.34">
    <path d="M33 99.34a3 3 0 0 1-3-3v-3.333a22.618 22.618 0 0 1 13.218-20.75 14.667 14.667 0 1 1 19.564 0A22.617 22.617 0 0 1 76 93.007v3.333a3 3 0 0 1-3 3zm3-6.333v.333h34v-.333c0-11.093-9.873-17-17-17s-17 5.907-17 17zm8.334-31.669A8.667 8.667 0 1 0 53 52.671a8.676 8.676 0 0 0-8.666 8.667zm26.545 7.122a3 3 0 0 1 0-4.243l13.333-13.334a3 3 0 0 1 4.243 4.243L75.121 68.459a3 3 0 0 1-4.243 0zm-40 0L17.545 55.126a3 3 0 0 1 4.243-4.243l13.333 13.334a3 3 0 0 1-4.243 4.243zM69.673 46a3 3 0 0 1-3-3c0-9.6 4.065-17.152 10.558-20.732a13 13 0 1 1 18.211 0C101.935 25.85 106 33.4 106 43a3 3 0 0 1-3 3zm3.168-6h26.992c-.979-8.491-6.156-14-13.5-14S73.82 31.512 72.841 40zm6.5-27a7 7 0 1 0 7-7 7.008 7.008 0 0 0-7.004 7zM3 46a3 3 0 0 1-3-3c0-9.6 4.067-17.153 10.56-20.733a13 13 0 1 1 18.212 0C35.265 25.85 39.33 33.4 39.33 43a3 3 0 0 1-3 3zm3.168-6h26.994c-.979-8.491-6.155-14-13.5-14S7.147 31.512 6.168 40zm6.5-27a7 7 0 1 0 7-7 7.008 7.008 0 0 0-7.001 7zm27 9.672a3 3 0 0 1 0-6h26.666a3 3 0 0 1 0 6z" style="fill:#666768"/>
</svg>
