<svg xmlns="http://www.w3.org/2000/svg" width="106" height="106" viewBox="0 0 106 106">
    <path d="M39.667 106a16.352 16.352 0 0 1-16.334-16.333V19.333H0v-3C0 6.869 6.313 0 15.012 0h54.655A16.352 16.352 0 0 1 86 16.333v57h3.667a16.334 16.334 0 0 1 0 32.667zM56 89.666A16.262 16.262 0 0 1 52.307 100h37.36a10.333 10.333 0 0 0 0-20.667h-37.36A16.254 16.254 0 0 1 56 89.666zM29.333 16.333v73.334a10.334 10.334 0 1 0 10.334-10.334 3 3 0 0 1 0-6H80v-57A10.345 10.345 0 0 0 69.667 6h-43.14a18.572 18.572 0 0 1 2.806 10.333zM15.012 6c-4.947 0-7.742 3.419-8.666 7.333h16.71C22.3 9.412 19.917 6 15.012 6zM43 59.333a3 3 0 1 1 0-6h23.333a3 3 0 1 1 0 6zm0-16.667a3 3 0 1 1 0-6h23.333a3 3 0 1 1 0 6zM43 26a3 3 0 1 1 0-6h23.333a3 3 0 1 1 0 6z" style="fill:#666768"/>
</svg>
